<svg width="216" height="203" viewBox="0 0 216 203" fill="none" xmlns="http://www.w3.org/2000/svg">
<path d="M108 142.359C139.751 142.359 165.491 116.62 165.491 84.8687C165.491 53.1175 139.751 27.3781 108 27.3781C76.2491 27.3781 50.5096 53.1175 50.5096 84.8687C50.5096 116.62 76.2491 142.359 108 142.359Z" fill="url(#paint0_linear_452_6952)"/>
<g clip-path="url(#clip0_452_6952)">
<g opacity="0.2">
<path d="M60.5715 113.362C59.9395 111.725 60.8188 110.191 60.8737 108.563C60.947 106.391 58.5473 105.734 58.5657 103.876C58.584 102.573 60.0036 101.704 59.967 100.335C59.9395 99.3831 59.0969 98.625 58.6756 98.2182C58.2542 97.8114 58.4008 96.4339 58.5015 95.8422C58.6023 95.2413 59.4632 94.2059 59.1518 93.5587C58.8404 92.9115 60.947 92.2089 61.2676 90.7667C61.7347 88.6496 58.7763 89.8699 57.7871 90.0826C54.8196 90.7205 55.3875 87.4662 55.3325 85.5802C55.2684 83.611 54.957 82.0855 53.4183 80.7173C52.5757 79.9592 53.3267 78.1841 53.3634 77.2504C53.4091 75.9376 52.6489 74.6987 53.1802 73.4136C53.8121 71.879 57.3017 67.58 54.325 66.4613C54.1327 66.3874 53.9404 66.2672 53.7572 66.1378C48.0511 83.2597 50.8904 101.852 60.6539 116.32C60.8096 115.183 60.8096 113.981 60.5715 113.362Z" fill="white"/>
<path d="M62.7419 49.2196C63.4289 48.9237 64.1524 48.5077 64.6928 48.822C65.7003 49.4137 65.3431 50.292 65.1874 51.2905C64.9035 53.195 64.9493 55.4138 66.1674 57.0502C66.2773 57.0502 66.3781 57.0502 66.4788 57.0409C67.3947 56.9207 67.9259 56.1164 68.3014 55.3306C68.8876 54.1287 69.2998 52.8621 70.0142 51.725C70.811 50.4584 71.7452 49.3028 72.6062 48.0824C74.1449 45.9283 75.1432 43.3304 76.9384 41.3612C78.5046 39.6416 80.547 39.2718 82.7726 39.0315C85.5112 38.7264 87.9749 38.5415 90.3013 36.9143C92.2888 35.5183 93.9466 34.6216 96.4195 34.9359C99.5519 35.3427 102.373 34.5383 105.469 34.261C106.733 34.1501 108.051 34.0946 109.27 34.4829C110.543 34.8897 111.459 36.1932 112.246 37.1917C112.347 37.3119 112.356 37.4413 112.246 37.5707C111.743 38.1809 111.193 38.7171 110.588 39.2071C111.202 39.6416 111.816 40.1871 111.944 40.9637C111.944 40.9914 111.944 41.0284 111.953 41.0561C112.603 41.0192 113.135 41.0007 113.354 41.1301C113.895 41.4629 114.747 41.4722 115.205 41.7773C115.672 42.0823 117.375 43.3952 118.419 42.8404C119.464 42.2857 120.581 42.8867 120.938 42.5261C121.295 42.1656 122.303 42.0916 120.755 40.1224C119.207 38.1532 119.006 39.429 119.207 38.1532C119.409 36.8774 120.434 36.8589 121.204 37.6817C121.973 38.5045 122.092 38.9113 122.935 38.9113C123.777 38.9113 125.673 40.0669 126.113 41.0377C126.562 42.0084 127.826 43.5153 129.044 43.4784C130.262 43.4414 130.518 44.4306 130.793 45.0315C131.068 45.6325 131.956 47.3058 132.671 47.4353C133.376 47.5647 134.512 47.6294 135.08 47.1671C135.647 46.7049 136.6 45.8081 136.344 44.8097C136.087 43.8112 135.006 42.7387 135.757 41.6756C136.499 40.6124 135.721 38.6062 134.979 36.9883C134.264 35.4351 132.359 34.9174 132.359 33.1793C108.106 21.0128 78.99 28.0853 62.7419 49.2196Z" fill="white"/>
<path d="M143.488 44.209C144.916 45.642 145.439 47.6297 145.466 48.2676C145.503 48.9055 146.794 49.7468 147.976 50.6436C149.166 51.5311 155.248 54.3416 155.248 54.3416C155.248 54.3416 155.275 54.3324 155.321 54.3046C152.134 49.0719 148.076 44.3199 143.222 40.2798C142.929 41.0749 142.352 43.0718 143.488 44.209Z" fill="white"/>
<path d="M127.487 66.7119C125.802 66.8321 125.207 68.0617 124.227 67.2019C123.256 66.3328 122.047 66.0925 121.451 66.3698C120.856 66.6472 118.786 65.7781 119.766 67.5902C120.737 69.4115 121.003 70.3082 121.103 70.9924C121.195 71.6765 121.644 71.695 122.468 72.7027C123.292 73.7104 122.935 75.4855 122.889 76.0125C122.843 76.5487 122.505 75.9662 121.112 75.4485C119.711 74.9308 119.794 74.4593 118.411 74.2929C117.028 74.1265 118.108 73.6272 115.91 74.2097C113.712 74.7921 113.584 75.9477 112.503 74.6904C111.422 73.4331 111.367 72.3606 111.367 71.5656C111.367 70.7612 110.479 66.9245 111.697 65.9261C112.906 64.9276 113.721 63.5223 113.63 62.6903C113.538 61.849 114.326 60.2403 113.126 60C111.926 59.7503 111.138 60.2588 110.589 61.1094C110.03 61.9507 108.775 62.6903 108.098 62.4869C107.429 62.2835 107.502 61.812 105.808 62.2373C104.113 62.6533 103.143 62.5978 102.556 62.5793C101.97 62.5608 100.294 62.2373 97.6563 60.906C95.0185 59.5747 95.165 58.7704 94.1392 59.3898C93.1226 60.0092 92.2708 58.946 91.6205 58.1509C90.9702 57.3559 90.9886 55.664 89.4865 55.8489C87.9752 56.0431 88.3874 55.0446 87.0502 55.4421L85.8229 55.9414C85.8229 55.9414 84.8062 56.4129 84.3941 56.4591C83.9819 56.5053 83.2492 57.134 83.0294 57.6055C82.8096 58.077 81.2342 60.342 80.4374 61.1556C79.6406 61.9599 80.3183 64.0678 79.8695 65.1495C79.4208 66.2311 79.0544 66.7026 80.6664 66.8968C82.2784 67.1002 82.3699 67.9322 83.4141 67.6734C84.4582 67.4053 86.3266 68.0062 86.7754 68.6719C87.2242 69.3375 86.5831 73.8121 87.6547 75.2174C88.7354 76.6226 88.8545 77.3715 88.6255 78.1388C88.3966 78.9062 88.7721 80.9956 89.4865 81.615C90.2009 82.2344 91.4648 82.6042 91.6297 82.9648C91.7945 83.3253 92.28 83.9078 92.2433 85.1004C92.2067 86.293 91.5381 89.5935 91.5473 90.4071C91.5473 91.2114 90.8328 93.3008 91.6022 95.2885C92.3624 97.2762 90.8786 97.5258 92.9303 99.7908C94.9819 102.056 93.8004 103.119 95.4123 103.322C97.0243 103.526 101.439 104.765 102.126 106.272C102.813 107.779 104.333 110.95 105.24 111.994C106.147 113.039 108.583 114.389 109.078 115.48C109.572 116.571 110.177 118.041 110.983 118.549C111.789 119.048 114.042 119.686 115.049 119.363C116.066 119.039 118.988 118.928 120.096 119.289C121.204 119.649 124.263 119.039 126.361 117.911C128.458 116.793 129.594 117.209 130.226 115.896C130.858 114.574 130.088 114.638 128.641 114.657C127.194 114.666 127.249 113.982 125.115 114.241C122.99 114.5 124.245 114.87 122.376 114.269C120.508 113.677 119.528 112.956 118.722 111.356C117.916 109.757 117.403 108.453 116.808 107.483C116.222 106.512 116.222 103.655 117.522 100.78C118.823 97.9048 119.555 100.78 121.552 97.3686C123.549 93.9572 127.029 95.5566 127.927 91.6274C128.815 87.6983 127.221 86.7553 127.167 85.0264C127.102 83.2976 136.234 82.6412 136.756 79.1835C137.278 75.7166 138.689 77.6951 137.562 74.2651C136.435 70.8352 136.729 68.94 134.063 68.3483C131.398 67.7566 129.2 66.5825 127.515 66.7119H127.487Z" fill="white"/>
<path d="M100.11 44.9846C98.4526 44.5039 96.8315 43.3483 95.0547 43.4222C93.4976 43.4869 92.0505 44.4207 91.4002 45.8629C90.7683 47.2682 91.043 49.4778 91.7208 50.8183C92.078 51.5302 92.5268 52.1866 93.3602 52.2698C93.8823 52.316 95.6683 51.1788 96.0896 51.6688C97.7749 53.6288 101.246 51.9924 102.794 54.0818C103.215 54.655 103.023 55.3391 103.344 55.9308C104.195 57.5025 106.458 58.5749 108.179 58.6212C108.839 58.6396 110.515 58.4455 110.616 57.5025C110.689 56.7444 109.645 56.6057 109.297 56.1435C107.712 54.0078 106.732 50.8645 106.366 48.2574C106.201 47.0648 105.926 46.168 105.395 45.6041C104.488 44.6333 103.17 44.9292 101.979 45.0124C101.365 45.0586 100.706 45.1788 100.101 45.0031L100.11 44.9846Z" fill="white"/>
</g>
</g>
<g opacity="0.2" filter="url(#filter0_f_452_6952)">
<path d="M96.9276 29.9711C96.2944 29.7713 95.6525 29.5926 95.0017 29.4138L94.6939 29.4979L94.4477 29.2561C94.3334 29.2245 94.2191 29.193 94.1047 29.1614C68.5846 23.3781 79.6474 54.766 84.2907 79.645L84.5985 79.9395L84.8095 80.0026L84.9414 80.0341L85.1525 80.0972L112.335 72.6209C136.096 66.0909 126.924 39.1404 96.9276 29.9711Z" fill="black"/>
</g>
<g filter="url(#filter1_d_452_6952)">
<path d="M146.279 126.615C118.332 121.409 98.3035 105.716 84.7822 80.4315" stroke="url(#paint1_linear_452_6952)" stroke-width="4.39244" stroke-linecap="round" stroke-linejoin="round" stroke-dasharray="8.78 8.78" shape-rendering="crispEdges"/>
</g>
<g clip-path="url(#clip1_452_6952)">
<path d="M84.5667 44.3691C84.5667 44.3691 84.5482 44.3802 84.5297 44.3691C79.1166 43.9927 74.8158 39.0062 74.7972 32.8828C74.7713 26.7485 79.035 21.725 84.4481 21.3117H84.4852C84.5556 21.3043 84.6149 21.3006 84.6706 21.2969V0C84.2738 0 83.84 0.0147639 83.4693 0.0369097C57.1343 1.28815 45.3181 34.8095 64.0267 52.7587L82.4682 70.4458L84.6668 72.9779V73L84.6706 72.9963V44.3876C84.6335 44.3802 84.5964 44.3728 84.5667 44.3691Z" fill="#9ED667"/>
<g opacity="0.1" filter="url(#filter2_f_452_6952)">
<path d="M77.4185 43.8487C77.2924 43.8561 77.1626 43.8487 77.0366 43.8303C77.0292 43.8377 77.0217 43.8377 77.0069 43.8303C72.4429 43.4759 69.8846 38.7589 69.8698 32.9677C69.8475 27.1692 72.3724 22.419 76.9365 22.0277H76.9661C77.0922 22.0093 77.2219 22.0093 77.348 22.0093L82.9465 2.65749V2.30316C82.5572 2.30316 82.1679 2.31054 81.7749 2.34007C59.5738 3.51749 53.193 34.3186 67.3486 52.7218L80.3104 69.0101L82.1419 70.981L82.1716 71.0069L82.5535 71.424L77.4147 43.845L77.4185 43.8487Z" fill="black"/>
</g>
<path d="M86.3315 0.0369097C85.9051 0.0110729 85.3971 0 84.9559 0C84.9559 0 84.9189 0 84.8966 0C84.8781 0 84.8558 0 84.8373 0C84.7817 0 84.7224 0 84.6667 0V21.2969C84.7446 21.2932 84.8113 21.2895 84.8558 21.2932C84.8558 21.2932 84.8781 21.2932 84.8966 21.2932C84.9115 21.2932 84.9263 21.2932 84.9374 21.2932C85.0153 21.2932 85.1413 21.2932 85.3119 21.3117H85.3489C90.762 21.725 95.0258 26.7485 94.9998 32.8828C94.9813 39.0062 90.6805 43.9927 85.2674 44.3691C85.2488 44.3802 85.2414 44.3802 85.2303 44.3691C85.1487 44.3802 85.0227 44.4061 84.9003 44.4319C84.8188 44.4171 84.7409 44.4024 84.6705 44.3876V72.9926L85.1191 72.5571L85.1562 72.5276L87.3288 70.4422L105.77 52.755C124.479 34.8095 112.663 1.28815 86.3315 0.0369097Z" fill="#F9A95F"/>
<g opacity="0.1" filter="url(#filter3_f_452_6952)">
<path d="M92.1561 42.2764C92.2822 42.2837 92.412 42.2764 92.538 42.2579C92.5454 42.2653 92.5528 42.2653 92.5677 42.2579C97.1317 41.9036 99.69 37.1865 99.7048 31.3954C99.727 25.5969 97.2022 20.8466 92.6381 20.4553H92.6085C92.4824 20.4369 92.3526 20.4369 92.2266 20.4369L86.6281 1.08883V0.734497C87.0174 0.734497 87.4067 0.741879 87.7997 0.771407C110.004 1.95252 116.382 32.7537 102.226 51.1568L89.2642 67.4451L87.4327 69.4161L87.403 69.4419L87.0211 69.859L92.1598 42.2801L92.1561 42.2764Z" fill="black"/>
</g>
<path d="M84.8373 44.4319C84.8003 44.4097 84.7632 44.3802 84.7409 44.3691H84.7298C83.1467 43.9927 81.8898 39.0062 81.8824 32.8828C81.875 26.7521 83.1207 21.725 84.7039 21.3117H84.715C84.7669 21.2895 84.8003 21.2895 84.8262 21.2895H84.8373V0H84.8188C84.6927 0 84.5407 0.0147639 84.4184 0.0369097C76.7214 1.28815 73.2659 34.8095 78.7346 52.7587L84.1255 70.4458L84.7595 72.5312L84.7706 72.5571L84.8336 72.7748V44.4319H84.8373Z" fill="#4ABEA6"/>
<path d="M84.6148 44.3691H84.5889C80.7627 43.9927 77.7187 39.0062 77.7076 32.8828C77.6891 26.7521 80.7033 21.725 84.5296 21.3117H84.5555C84.6779 21.2895 84.7669 21.2895 84.8225 21.2895H84.841V0H84.8113C84.4999 0 84.1403 0.0147639 83.84 0.0369097C65.2167 1.28815 56.8635 34.8095 70.0885 52.7587L83.1281 70.4458L84.663 72.5312L84.6927 72.5571L84.8373 72.7564V44.4319C84.752 44.4097 84.6667 44.3802 84.6111 44.3728L84.6148 44.3691Z" fill="#6C6CD3"/>
<path d="M85.8643 0.0369097C85.5603 0.0147639 85.2007 0 84.8892 0H84.8373V21.2932H84.8744C84.93 21.2932 85.019 21.2932 85.1414 21.3117H85.1673C88.9936 21.725 92.0115 26.7485 91.9893 32.8828C91.9745 39.0099 88.9342 43.9927 85.108 44.3691H85.082C85.0264 44.3802 84.9374 44.4097 84.8448 44.4319H84.8373V72.7564L85.0116 72.9963V72.9742L86.5651 70.4422L99.6047 52.755C112.837 34.8095 104.48 1.28815 85.8643 0.0369097Z" fill="#00CDD0"/>
<g opacity="0.1" filter="url(#filter4_f_452_6952)">
<path d="M88.2668 42.675C88.341 42.6824 88.4151 42.675 88.4893 42.6565C88.493 42.6639 88.4967 42.6639 88.5078 42.6565C91.1625 42.2948 92.6529 37.5113 92.6603 31.6353C92.6752 25.7519 91.2033 20.9315 88.5486 20.5329H88.5301C88.4559 20.5144 88.3818 20.5144 88.3076 20.5144L85.0486 0.882131V0.520416C85.2748 0.520416 85.501 0.527798 85.7308 0.557326C98.6481 1.75689 102.359 33.0083 94.1248 51.6809L86.5836 68.2054L85.5158 70.2059L85.4973 70.2318L85.2748 70.6562L88.2668 42.675Z" fill="black"/>
</g>
<path d="M85.26 0.0369097C85.1339 0.0147639 84.9856 0.00369097 84.8596 0H84.8447V21.2932H84.8559C84.8781 21.2932 84.9152 21.2932 84.9671 21.3117H84.9782C86.5613 21.725 87.8071 26.7485 87.7997 32.8828C87.7923 39.0099 86.5354 43.9927 84.9522 44.3691H84.9411C84.9189 44.3802 84.8818 44.4097 84.8447 44.4319V72.7712L84.9115 72.9963V72.9742L85.5529 70.4422L90.9437 52.755C96.4124 34.8095 92.9569 1.28815 85.26 0.0369097Z" fill="#74F4D9"/>
</g>
<g clip-path="url(#clip2_452_6952)">
<path d="M33.5749 162.755V166.09C33.5749 167.583 32.9702 168.013 31.0881 167.798C27.3116 167.361 25.4234 167.134 21.6531 166.646V194.974C21.6531 196.657 21.0483 197.265 19.1786 197.461C17.2225 197.67 16.2475 197.777 14.2976 197.999C12.4895 198.201 11.891 197.689 11.891 195.867C11.891 185.679 11.891 175.486 11.891 165.299C8.10833 164.748 6.22626 164.463 2.45595 163.862C0.59856 163.565 0 162.818 0 160.882V156.567C0 154.567 0.59856 154.067 2.45595 154.504C11.9403 156.719 21.4865 158.693 31.0881 160.3C32.964 160.616 33.5749 161.211 33.5749 162.755Z" fill="white"/>
<path d="M48.0823 170.753C49.7237 170.886 50.3346 171.335 50.3346 172.582V175.341C50.3346 176.543 49.7237 176.916 48.0823 176.847C47.1813 176.809 46.7309 176.79 45.8299 176.745C44.1268 176.669 42.8557 176.701 41.5166 176.878C41.2142 176.91 41.1525 177.049 41.1525 177.195V193.678C41.1525 195 40.6033 195.468 38.9681 195.601C37.0737 195.759 36.1296 195.835 34.2352 196.006C32.5382 196.158 31.9952 195.753 31.9952 194.342V173.746C31.9952 172.082 32.421 171.513 34.4203 171.044C36.722 170.507 40.4799 170.253 46.0768 170.589C46.879 170.658 47.2801 170.69 48.0823 170.753Z" fill="white"/>
<path d="M63.3672 167.166V167.577C63.3672 169.811 62.3305 170.45 59.0415 170.209C58.5293 170.171 58.2763 170.152 57.7642 170.114C54.4752 169.867 53.4385 169.032 53.4385 166.672V166.235C53.4385 163.875 54.4752 163.274 57.7642 163.641C58.2763 163.698 58.5293 163.73 59.0415 163.78C62.3305 164.141 63.3672 164.932 63.3672 167.166ZM63.0031 173.968C63.0031 180.124 63.0031 186.281 63.0031 192.437C63.0031 193.595 62.4539 194 60.8063 194.089C58.9057 194.196 57.9554 194.253 56.0549 194.367C54.3517 194.475 53.8026 194.114 53.8026 192.899C53.8026 186.42 53.8026 179.941 53.8026 173.461C53.8026 172.24 54.3517 171.886 56.0549 172C57.9554 172.126 58.9057 172.19 60.8063 172.304C62.4539 172.405 63.0031 172.803 63.0031 173.968Z" fill="white"/>
<path d="M83.9465 172.797C93.0545 173.094 97.2815 175.916 97.2815 180.744V185.395C97.1519 192.399 88.1858 193.69 83.1505 193.716C81.4844 193.722 79.8492 193.671 78.325 193.532V200.385C78.325 201.467 77.7758 201.853 76.1282 201.967C74.2215 202.099 73.2712 202.175 71.3644 202.327C69.6552 202.466 69.106 202.156 69.106 201.03C69.106 192.602 69.106 184.174 69.106 175.739C69.106 174.411 69.5379 173.936 71.5496 173.518C74.1042 172.987 77.8992 172.595 83.9527 172.791L83.9465 172.797ZM82.8482 177.91C81.1389 177.878 79.8554 177.967 78.6336 178.099C78.3867 178.131 78.325 178.251 78.325 178.365V188.426C79.4851 188.521 80.9538 188.609 82.4224 188.59C86.2112 188.533 87.9884 187.534 87.9884 185.433V180.738C87.9884 178.973 86.1557 177.973 82.8543 177.91H82.8482Z" fill="white"/>
<path d="M128.789 167.849V170.374C128.789 171.506 128.178 171.899 126.284 171.949C122.47 172.05 120.557 172.088 116.738 172.139V191.317C116.738 192.456 116.127 192.817 114.226 192.804C112.245 192.792 111.252 192.785 109.271 192.785C107.432 192.785 106.821 192.418 106.821 191.286V172.196C102.977 172.19 101.058 172.171 97.2136 172.114C95.3192 172.082 94.7021 171.696 94.7021 170.589V168.108C94.7021 166.963 95.313 166.609 97.2136 166.653C106.902 166.862 116.596 166.824 126.278 166.419C128.172 166.343 128.783 166.691 128.783 167.855L128.789 167.849Z" fill="white"/>
<path d="M143.395 172.341C145.043 172.266 145.654 172.588 145.654 173.708V176.189C145.654 177.271 145.043 177.644 143.395 177.688C142.494 177.713 142.038 177.72 141.137 177.745C139.428 177.783 138.144 177.891 136.799 178.112C136.49 178.156 136.435 178.27 136.435 178.391V191.836C136.435 192.918 135.886 193.241 134.232 193.19C132.325 193.133 131.369 193.102 129.462 193.058C127.753 193.013 127.197 192.665 127.197 191.615V176.277C127.197 175.037 127.629 174.588 129.641 174.044C131.961 173.417 135.756 172.81 141.377 172.436C142.186 172.398 142.587 172.379 143.395 172.341Z" fill="white"/>
<path d="M161.63 171.241C167.436 170.551 175.582 172.468 175.187 180.112C175.187 184.92 175.187 187.325 175.187 192.134C175.187 193.836 174.675 194.266 172.941 194.709C170.651 195.297 166.517 195.608 161.445 195.114C156.181 194.601 147.382 193.728 147.486 187.648C147.585 181.807 156.348 180.77 161.691 180.833C163.228 180.852 165.036 180.82 166.011 180.846V179.865C166.011 177.682 164.672 176.625 161.327 176.758C158.89 176.853 157.353 177.467 156.274 178.511C155.299 179.454 154.811 179.675 153.164 179.257C151.824 178.909 151.152 178.732 149.807 178.391C148.221 177.986 147.733 177.435 148.585 176.271C150.72 173.525 155.366 171.968 161.63 171.222V171.241ZM160.902 185.825C157.428 185.781 156.699 186.66 156.699 187.799C156.699 189.027 157.372 189.887 160.778 190.014C163.333 190.109 164.795 190.077 165.585 190.02C165.826 189.989 166.011 189.951 166.011 189.723C166.011 188.223 166.011 187.477 166.011 185.977C164.857 185.958 162.543 185.838 160.895 185.819L160.902 185.825Z" fill="white"/>
<path d="M214.303 199.524C212.001 199.227 210.847 199.081 208.54 198.803C205.596 198.449 204.93 198.233 203.726 196.126C200.814 191.204 199.351 188.888 196.433 184.497C193.68 188.856 192.304 190.913 189.546 194.836C188.275 196.405 187.732 196.544 184.702 196.266C182.524 196.063 181.432 195.968 179.247 195.785C177.488 195.633 177.124 194.703 178.032 193.703C182.524 188.578 186.615 183.161 190.688 177.688C186.905 172.69 182.82 167.811 178.575 163.217C177.667 162.376 178.087 161.408 179.728 161.148C181.962 160.794 183.073 160.61 185.301 160.231C188.207 159.737 188.812 159.864 190.083 161.18C192.792 164.622 194.143 166.425 196.846 170.253C199.524 165.875 200.863 163.578 203.535 158.731C204.8 156.675 205.405 156.352 207.984 155.776C210.292 155.264 211.446 154.998 213.748 154.454C215.364 154.074 215.784 155.2 214.889 156.681C211.125 163.641 207.089 170.45 202.751 177.055C207.312 183.503 211.545 190.185 215.488 197.044C216.444 198.499 216.025 199.746 214.291 199.524H214.303Z" fill="white"/>
</g>
<defs>
<filter id="filter0_f_452_6952" x="73.6218" y="24.2046" width="56.4644" height="60.1524" filterUnits="userSpaceOnUse" color-interpolation-filters="sRGB">
<feFlood flood-opacity="0" result="BackgroundImageFix"/>
<feBlend mode="normal" in="SourceGraphic" in2="BackgroundImageFix" result="shape"/>
<feGaussianBlur stdDeviation="2.12992" result="effect1_foregroundBlur_452_6952"/>
</filter>
<filter id="filter1_d_452_6952" x="78.3257" y="78.2349" width="74.4093" height="59.0964" filterUnits="userSpaceOnUse" color-interpolation-filters="sRGB">
<feFlood flood-opacity="0" result="BackgroundImageFix"/>
<feColorMatrix in="SourceAlpha" type="matrix" values="0 0 0 0 0 0 0 0 0 0 0 0 0 0 0 0 0 0 127 0" result="hardAlpha"/>
<feOffset dy="4.25984"/>
<feGaussianBlur stdDeviation="2.12992"/>
<feComposite in2="hardAlpha" operator="out"/>
<feColorMatrix type="matrix" values="0 0 0 0 0 0 0 0 0 0 0 0 0 0 0 0 0 0 0.25 0"/>
<feBlend mode="normal" in2="BackgroundImageFix" result="effect1_dropShadow_452_6952"/>
<feBlend mode="normal" in="SourceGraphic" in2="effect1_dropShadow_452_6952" result="shape"/>
</filter>
<filter id="filter2_f_452_6952" x="55.8251" y="-1.69684" width="31.1214" height="77.1208" filterUnits="userSpaceOnUse" color-interpolation-filters="sRGB">
<feFlood flood-opacity="0" result="BackgroundImageFix"/>
<feBlend mode="normal" in="SourceGraphic" in2="BackgroundImageFix" result="shape"/>
<feGaussianBlur stdDeviation="2" result="effect1_foregroundBlur_452_6952"/>
</filter>
<filter id="filter3_f_452_6952" x="82.6281" y="-3.2655" width="31.1223" height="77.1245" filterUnits="userSpaceOnUse" color-interpolation-filters="sRGB">
<feFlood flood-opacity="0" result="BackgroundImageFix"/>
<feBlend mode="normal" in="SourceGraphic" in2="BackgroundImageFix" result="shape"/>
<feGaussianBlur stdDeviation="2" result="effect1_foregroundBlur_452_6952"/>
</filter>
<filter id="filter4_f_452_6952" x="81.0486" y="-3.47958" width="21.4528" height="78.1358" filterUnits="userSpaceOnUse" color-interpolation-filters="sRGB">
<feFlood flood-opacity="0" result="BackgroundImageFix"/>
<feBlend mode="normal" in="SourceGraphic" in2="BackgroundImageFix" result="shape"/>
<feGaussianBlur stdDeviation="2" result="effect1_foregroundBlur_452_6952"/>
</filter>
<linearGradient id="paint0_linear_452_6952" x1="50.5096" y1="84.8687" x2="165.491" y2="84.8687" gradientUnits="userSpaceOnUse">
<stop stop-color="#33B6CF"/>
<stop offset="0.96" stop-color="#005EB9"/>
</linearGradient>
<linearGradient id="paint1_linear_452_6952" x1="85.2576" y1="86.8586" x2="138.12" y2="126.813" gradientUnits="userSpaceOnUse">
<stop offset="0.00520833" stop-color="white"/>
<stop offset="0.651042" stop-color="#FDF7F7"/>
<stop offset="1" stop-color="white" stop-opacity="0"/>
</linearGradient>
<clipPath id="clip0_452_6952">
<rect width="104.495" height="92.2013" fill="white" transform="translate(50.8356 27.2347)"/>
</clipPath>
<clipPath id="clip1_452_6952">
<rect width="60" height="73" fill="white" transform="translate(54.8985)"/>
</clipPath>
<clipPath id="clip2_452_6952">
<rect width="216" height="48" fill="white" transform="translate(0 154.359)"/>
</clipPath>
</defs>
</svg>
