<svg width="153" height="220" viewBox="0 0 153 220" fill="none" xmlns="http://www.w3.org/2000/svg">
<g clip-path="url(#clip0_831_6224)">
<path d="M76.5003 142.359C108.251 142.359 133.991 116.62 133.991 84.8687C133.991 53.1175 108.251 27.3781 76.5003 27.3781C44.7491 27.3781 19.0096 53.1175 19.0096 84.8687C19.0096 116.62 44.7491 142.359 76.5003 142.359Z" fill="url(#paint0_linear_831_6224)"/>
<g clip-path="url(#clip1_831_6224)">
<g opacity="0.2">
<path d="M29.0715 113.362C28.4395 111.725 29.3188 110.191 29.3737 108.563C29.447 106.391 27.0473 105.734 27.0657 103.876C27.084 102.573 28.5036 101.704 28.467 100.335C28.4395 99.3831 27.5969 98.625 27.1756 98.2182C26.7542 97.8114 26.9008 96.4339 27.0015 95.8422C27.1023 95.2413 27.9632 94.2059 27.6518 93.5587C27.3404 92.9115 29.447 92.2089 29.7676 90.7667C30.2347 88.6496 27.2763 89.8699 26.2871 90.0826C23.3196 90.7205 23.8875 87.4662 23.8325 85.5802C23.7684 83.611 23.457 82.0855 21.9183 80.7173C21.0757 79.9592 21.8267 78.1841 21.8634 77.2504C21.9091 75.9376 21.1489 74.6987 21.6802 73.4136C22.3121 71.879 25.8017 67.58 22.825 66.4613C22.6327 66.3874 22.4404 66.2672 22.2572 66.1378C16.5511 83.2597 19.3904 101.852 29.1539 116.32C29.3096 115.183 29.3096 113.981 29.0715 113.362Z" fill="white"/>
<path d="M31.2419 49.2196C31.9289 48.9237 32.6524 48.5077 33.1928 48.8221C34.2003 49.4137 33.8431 50.292 33.6874 51.2905C33.4035 53.195 33.4493 55.4138 34.6674 57.0502C34.7773 57.0502 34.8781 57.0502 34.9788 57.0409C35.8947 56.9208 36.4259 56.1164 36.8014 55.3306C37.3876 54.1287 37.7998 52.8622 38.5142 51.725C39.311 50.4584 40.2452 49.3028 41.1062 48.0824C42.6449 45.9283 43.6432 43.3305 45.4384 41.3613C47.0046 39.6417 49.047 39.2719 51.2726 39.0315C54.0112 38.7264 56.4749 38.5415 58.8013 36.9144C60.7888 35.5184 62.4466 34.6216 64.9195 34.9359C68.0519 35.3427 70.8729 34.5384 73.9686 34.261C75.2325 34.1501 76.5514 34.0946 77.7696 34.4829C79.0427 34.8897 79.9586 36.1933 80.7463 37.1917C80.847 37.3119 80.8562 37.4413 80.7463 37.5708C80.2425 38.1809 79.693 38.7172 79.0885 39.2072C79.7021 39.6417 80.3158 40.1871 80.444 40.9637C80.444 40.9915 80.444 41.0284 80.4532 41.0562C81.1035 41.0192 81.6347 41.0007 81.8545 41.1301C82.3949 41.463 83.2466 41.4722 83.7046 41.7773C84.1717 42.0824 85.8753 43.3952 86.9194 42.8405C87.9635 42.2858 89.0809 42.8867 89.4381 42.5261C89.7953 42.1656 90.8028 42.0916 89.2549 40.1224C87.7071 38.1532 87.5056 39.429 87.7071 38.1532C87.9086 36.8774 88.9344 36.8589 89.7037 37.6817C90.4731 38.5045 90.5922 38.9113 91.4348 38.9113C92.2774 38.9113 94.1733 40.0669 94.613 41.0377C95.0617 42.0084 96.3257 43.5154 97.5438 43.4784C98.762 43.4414 99.0184 44.4306 99.2932 45.0316C99.568 45.6325 100.456 47.3059 101.171 47.4353C101.876 47.5647 103.012 47.6294 103.58 47.1672C104.147 46.7049 105.1 45.8082 104.844 44.8097C104.587 43.8112 103.506 42.7388 104.257 41.6756C104.999 40.6124 104.221 38.6062 103.479 36.9883C102.764 35.4352 100.859 34.9174 100.859 33.1793C76.6064 21.0128 47.49 28.0853 31.2419 49.2196Z" fill="white"/>
<path d="M111.988 44.209C113.416 45.642 113.939 47.6297 113.966 48.2676C114.003 48.9055 115.294 49.7468 116.476 50.6436C117.666 51.5311 123.748 54.3416 123.748 54.3416C123.748 54.3416 123.775 54.3324 123.821 54.3047C120.634 49.0719 116.576 44.32 111.722 40.2798C111.429 41.0749 110.852 43.0719 111.988 44.209Z" fill="white"/>
<path d="M95.9871 66.7119C94.3019 66.8321 93.7065 68.0617 92.7265 67.2019C91.7556 66.3329 90.5467 66.0925 89.9513 66.3699C89.356 66.6472 87.2861 65.7782 88.2661 67.5902C89.2369 69.4115 89.5025 70.3083 89.6033 70.9924C89.6949 71.6765 90.1437 71.695 90.968 72.7027C91.7923 73.7105 91.4351 75.4855 91.3893 76.0125C91.3435 76.5487 91.0046 75.9663 89.6125 75.4485C88.2111 74.9308 88.2936 74.4593 86.9105 74.2929C85.5275 74.1265 86.6083 73.6273 84.4102 74.2097C82.212 74.7921 82.0838 75.9478 81.003 74.6904C79.9222 73.4331 79.8673 72.3607 79.8673 71.5656C79.8673 70.7613 78.9789 66.9246 80.197 65.9261C81.406 64.9276 82.2211 63.5224 82.1296 62.6903C82.038 61.849 82.8256 60.2404 81.6258 60C80.426 59.7504 79.6383 60.2588 79.0888 61.1094C78.5301 61.9507 77.2753 62.6903 76.5975 62.4869C75.9289 62.2835 76.0022 61.812 74.3078 62.2373C72.6134 62.6533 71.6425 62.5979 71.0563 62.5794C70.4702 62.5609 68.7941 62.2373 66.1563 60.906C63.5185 59.5747 63.665 58.7704 62.6392 59.3898C61.6226 60.0092 60.7708 58.946 60.1205 58.151C59.4702 57.3559 59.4886 55.664 57.9865 55.8489C56.4752 56.0431 56.8874 55.0446 55.5502 55.4422L54.3229 55.9414C54.3229 55.9414 53.3062 56.4129 52.8941 56.4591C52.4819 56.5053 51.7492 57.134 51.5294 57.6055C51.3096 58.077 49.7342 60.342 48.9374 61.1556C48.1406 61.9599 48.8183 64.0678 48.3695 65.1495C47.9208 66.2312 47.5544 66.7027 49.1664 66.8968C50.7784 67.1002 50.8699 67.9323 51.9141 67.6734C52.9582 67.4053 54.8266 68.0062 55.2754 68.6719C55.7242 69.3375 55.0831 73.8122 56.1547 75.2174C57.2354 76.6227 57.3545 77.3715 57.1255 78.1389C56.8966 78.9062 57.2721 80.9956 57.9865 81.615C58.7009 82.2344 59.9648 82.6042 60.1297 82.9648C60.2945 83.3254 60.78 83.9078 60.7433 85.1004C60.7067 86.293 60.0381 89.5935 60.0473 90.4071C60.0473 91.2114 59.3328 93.3008 60.1022 95.2885C60.8624 97.2762 59.3786 97.5258 61.4303 99.7909C63.4819 102.056 62.3004 103.119 63.9123 103.323C65.5243 103.526 69.939 104.765 70.6259 106.272C71.3128 107.779 72.8332 110.95 73.7399 111.994C74.6467 113.039 77.083 114.389 77.5775 115.48C78.0721 116.571 78.6766 118.041 79.4826 118.549C80.2886 119.048 82.5417 119.686 83.5492 119.363C84.5659 119.039 87.4876 118.928 88.5958 119.289C89.704 119.649 92.7631 119.039 94.8605 117.911C96.958 116.793 98.0937 117.209 98.7256 115.896C99.3576 114.574 98.5883 114.638 97.1411 114.657C95.694 114.666 95.749 113.982 93.6149 114.241C91.49 114.5 92.7448 114.87 90.8764 114.269C89.008 113.677 88.0279 112.956 87.222 111.356C86.416 109.757 85.9031 108.454 85.3077 107.483C84.7216 106.512 84.7216 103.655 86.0221 100.78C87.3227 97.9049 88.0554 100.78 90.0521 97.3687C92.0487 93.9572 95.5292 95.5566 96.4267 91.6275C97.3152 87.6983 95.7215 86.7553 95.6665 85.0265C95.6024 83.2976 104.734 82.6412 105.256 79.1836C105.778 75.7166 107.189 77.6951 106.062 74.2652C104.935 70.8352 105.229 68.94 102.563 68.3483C99.898 67.7566 97.6998 66.5825 96.0146 66.7119H95.9871Z" fill="white"/>
<path d="M68.6104 44.9846C66.9526 44.5039 65.3315 43.3483 63.5547 43.4222C61.9976 43.4869 60.5505 44.4207 59.9002 45.8629C59.2683 47.2682 59.543 49.4778 60.2208 50.8183C60.578 51.5302 61.0268 52.1866 61.8602 52.2698C62.3823 52.316 64.1683 51.1788 64.5896 51.6688C66.2749 53.6288 69.7461 51.9924 71.294 54.0818C71.7153 54.655 71.523 55.3391 71.8435 55.9308C72.6953 57.5025 74.9576 58.5749 76.6795 58.6212C77.3389 58.6396 79.015 58.4455 79.1158 57.5025C79.189 56.7444 78.1449 56.6057 77.7969 56.1435C76.2124 54.0078 75.2324 50.8645 74.866 48.2574C74.7011 47.0648 74.4264 46.168 73.8951 45.6041C72.9884 44.6333 71.6695 44.9292 70.4788 45.0124C69.8652 45.0586 69.2057 45.1788 68.6013 45.0031L68.6104 44.9846Z" fill="white"/>
</g>
</g>
<g opacity="0.2" filter="url(#filter0_f_831_6224)">
<path d="M65.4276 29.9711C64.7944 29.7713 64.1525 29.5926 63.5017 29.4138L63.1939 29.4979L62.9477 29.2561C62.8334 29.2246 62.7191 29.193 62.6047 29.1615C37.0846 23.3781 48.1474 54.766 52.7907 79.6451L53.0985 79.9395L53.3095 80.0026L53.4414 80.0341L53.6525 80.0972L80.8346 72.6209C104.596 66.0909 95.4238 39.1404 65.4276 29.9711Z" fill="black"/>
</g>
<g filter="url(#filter1_d_831_6224)">
<path d="M114.779 126.615C86.8318 121.409 66.8035 105.716 53.2822 80.4315" stroke="url(#paint1_linear_831_6224)" stroke-width="4.39244" stroke-linecap="round" stroke-linejoin="round" stroke-dasharray="8.78 8.78" shape-rendering="crispEdges"/>
</g>
<g clip-path="url(#clip2_831_6224)">
<path d="M53.0667 44.3691C53.0667 44.3691 53.0482 44.3802 53.0297 44.3691C47.6166 43.9927 43.3158 39.0062 43.2972 32.8828C43.2713 26.7485 47.535 21.725 52.9481 21.3117H52.9852C53.0556 21.3043 53.1149 21.3006 53.1706 21.2969V0C52.7738 0 52.34 0.0147639 51.9693 0.0369097C25.6343 1.28815 13.8181 34.8095 32.5267 52.7587L50.9682 70.4458L53.1668 72.9779V73L53.1706 72.9963V44.3876C53.1335 44.3802 53.0964 44.3728 53.0667 44.3691Z" fill="#A9380F"/>
<g opacity="0.1" filter="url(#filter2_f_831_6224)">
<path d="M45.9185 43.8487C45.7924 43.8561 45.6626 43.8487 45.5366 43.8303C45.5292 43.8377 45.5217 43.8377 45.5069 43.8303C40.9429 43.4759 38.3846 38.7589 38.3698 32.9677C38.3475 27.1692 40.8724 22.419 45.4365 22.0277H45.4661C45.5922 22.0093 45.7219 22.0093 45.848 22.0093L51.4465 2.65749V2.30316C51.0572 2.30316 50.6679 2.31054 50.2749 2.34007C28.0738 3.51749 21.693 34.3186 35.8486 52.7218L48.8104 69.0101L50.6419 70.981L50.6716 71.0069L51.0535 71.424L45.9147 43.845L45.9185 43.8487Z" fill="black"/>
</g>
<path d="M54.8315 0.0369097C54.4051 0.0110729 53.8971 0 53.4559 0C53.4559 0 53.4189 0 53.3966 0C53.3781 0 53.3558 0 53.3373 0C53.2817 0 53.2224 0 53.1667 0V21.2969C53.2446 21.2932 53.3113 21.2895 53.3558 21.2932C53.3558 21.2932 53.3781 21.2932 53.3966 21.2932C53.4115 21.2932 53.4263 21.2932 53.4374 21.2932C53.5153 21.2932 53.6413 21.2932 53.8119 21.3117H53.8489C59.262 21.725 63.5258 26.7485 63.4998 32.8828C63.4813 39.0062 59.1805 43.9927 53.7674 44.3691C53.7488 44.3802 53.7414 44.3802 53.7303 44.3691C53.6487 44.3802 53.5227 44.4061 53.4003 44.4319C53.3188 44.4171 53.2409 44.4024 53.1705 44.3876V72.9926L53.6191 72.5571L53.6562 72.5276L55.8288 70.4422L74.2704 52.755C92.9789 34.8095 81.1628 1.28815 54.8315 0.0369097Z" fill="#FF9C27"/>
<g opacity="0.1" filter="url(#filter3_f_831_6224)">
<path d="M60.6561 42.2764C60.7822 42.2837 60.912 42.2764 61.038 42.2579C61.0454 42.2653 61.0528 42.2653 61.0677 42.2579C65.6317 41.9036 68.19 37.1865 68.2048 31.3954C68.227 25.5969 65.7022 20.8466 61.1381 20.4553H61.1085C60.9824 20.4369 60.8526 20.4369 60.7266 20.4369L55.1281 1.08883V0.734497C55.5174 0.734497 55.9067 0.741879 56.2997 0.771407C78.5045 1.95252 84.8816 32.7537 70.726 51.1568L57.7642 67.4451L55.9327 69.4161L55.903 69.4419L55.5211 69.859L60.6598 42.2801L60.6561 42.2764Z" fill="black"/>
</g>
<path d="M53.3373 44.4319C53.3003 44.4097 53.2632 44.3802 53.2409 44.3691H53.2298C51.6467 43.9927 50.3898 39.0062 50.3824 32.8828C50.375 26.7521 51.6207 21.725 53.2039 21.3117H53.215C53.2669 21.2895 53.3003 21.2895 53.3262 21.2895H53.3373V0H53.3188C53.1927 0 53.0407 0.0147639 52.9184 0.0369097C45.2214 1.28815 41.7659 34.8095 47.2346 52.7587L52.6255 70.4458L53.2595 72.5312L53.2706 72.5571L53.3336 72.7748V44.4319H53.3373Z" fill="#4ABEA6"/>
<path d="M53.1148 44.3691H53.0889C49.2627 43.9927 46.2187 39.0062 46.2076 32.8828C46.1891 26.7521 49.2033 21.725 53.0296 21.3117H53.0555C53.1779 21.2895 53.2669 21.2895 53.3225 21.2895H53.341V0H53.3113C52.9999 0 52.6403 0.0147639 52.34 0.0369097C33.7167 1.28815 25.3635 34.8095 38.5885 52.7587L51.6281 70.4458L53.163 72.5312L53.1927 72.5571L53.3373 72.7564V44.4319C53.252 44.4097 53.1667 44.3802 53.1111 44.3728L53.1148 44.3691Z" fill="#F9601E"/>
<path d="M54.3643 0.0369097C54.0603 0.0147639 53.7007 0 53.3892 0H53.3373V21.2932H53.3744C53.43 21.2932 53.519 21.2932 53.6414 21.3117H53.6673C57.4936 21.725 60.5115 26.7485 60.4893 32.8828C60.4745 39.0099 57.4342 43.9927 53.608 44.3691H53.582C53.5264 44.3802 53.4374 44.4097 53.3448 44.4319H53.3373V72.7564L53.5116 72.9963V72.9742L55.0651 70.4422L68.1047 52.755C81.3371 34.8095 72.9802 1.28815 54.3643 0.0369097Z" fill="#FE6814"/>
<g opacity="0.1" filter="url(#filter4_f_831_6224)">
<path d="M56.7668 42.675C56.841 42.6824 56.9151 42.675 56.9893 42.6566C56.993 42.6639 56.9967 42.6639 57.0078 42.6566C59.6625 42.2948 61.1529 37.5113 61.1603 31.6353C61.1752 25.7519 59.7033 20.9315 57.0486 20.5329H57.0301C56.9559 20.5144 56.8818 20.5144 56.8076 20.5144L53.5486 0.882162V0.520447C53.7748 0.520447 54.001 0.527829 54.2308 0.557356C67.1481 1.75692 70.8594 33.0084 62.6248 51.681L55.0836 68.2054L54.0158 70.206L53.9973 70.2318L53.7748 70.6562L56.7668 42.675Z" fill="black"/>
</g>
<path d="M53.76 0.0369097C53.6339 0.0147639 53.4856 0.00369097 53.3596 0H53.3447V21.2932H53.3559C53.3781 21.2932 53.4152 21.2932 53.4671 21.3117H53.4782C55.0613 21.725 56.3071 26.7485 56.2997 32.8828C56.2923 39.0099 55.0354 43.9927 53.4522 44.3691H53.4411C53.4189 44.3802 53.3818 44.4097 53.3447 44.4319V72.7712L53.4115 72.9963V72.9742L54.0529 70.4422L59.4437 52.755C64.9124 34.8095 61.4569 1.28815 53.76 0.0369097Z" fill="#EA9240"/>
</g>
</g>
<path d="M57.3834 151.586C57.3444 152.148 56.6589 152.186 56.4984 151.867C55.6525 150.144 54.1645 149.147 52.4379 148.745C48.4989 147.825 42.868 147.985 38.7294 147.864C37.2414 150.787 35.8749 155.429 34.3869 159.868C32.9813 163.991 31.6538 168.473 30.5259 172.675C29.4414 176.837 28.5173 180.719 27.9143 183.841C26.3049 184.562 26.0229 183.879 25.9448 182.442C25.7843 180.322 26.5869 176.28 27.7929 171.677C28.7169 168.275 29.8448 164.592 30.9684 161.15C32.6993 155.87 34.5474 150.144 35.5929 147.825C33.0204 147.864 28.5564 148.145 24.574 147.825C19.3465 147.381 14.8825 146.383 16.2491 142.821C16.453 142.299 16.9735 142.221 17.134 142.579C18.262 144.941 21.6761 145.74 26.0186 145.9C29.5151 146.059 34.0181 145.982 38.122 146.059C43.2671 146.141 48.052 146.098 51.874 146.94C53.9259 147.381 54.889 147.821 55.8564 148.741C56.7023 149.583 57.3834 150.299 57.3834 151.582V151.586Z" fill="white"/>
<path d="M52.4383 165.39C52.1173 165.269 51.7963 164.911 51.5924 164.151C50.7898 164.19 50.0654 164.35 49.4233 164.591C48.6598 164.911 47.9744 165.312 47.3323 165.792C46.4864 166.474 45.6838 167.312 44.9984 168.275C43.7924 169.915 42.8293 171.837 42.222 173.516C41.4585 175.477 41.016 176.997 39.8881 177.2C38.322 177.441 37.758 176.081 37.758 174.117C37.719 172.234 38.2005 169.794 38.7211 167.795C39.1636 165.995 39.6451 164.514 39.849 164.073C40.6516 162.152 41.376 160.913 42.3434 161.392C43.3065 161.871 43.428 162.553 43.2284 163.313C43.0289 164.155 42.7859 164.954 42.543 165.753C42.1396 166.953 41.6971 168.154 41.337 169.475C41.055 170.554 40.8945 171.357 40.734 172.679C41.2546 171.319 41.901 170.036 42.6645 168.875C43.3889 167.756 44.1915 166.755 45.1589 165.835C46.2868 164.712 47.61 163.793 48.9374 163.395C50.022 163.115 51.1065 163.115 52.1954 163.555C52.5988 163.715 52.9589 163.957 53.1585 164.315C53.5185 164.954 53.076 165.636 52.434 165.395L52.4383 165.39Z" fill="white"/>
<path d="M63.3315 168.271C63.0495 168.871 61.2015 170.952 60.234 171.993C59.2276 173.033 58.065 174.113 56.8546 174.873C55.7701 175.555 54.6855 175.995 53.7572 175.913C51.7052 175.715 51.3452 173.59 51.4233 171.47C51.5057 170.071 51.8267 168.711 51.9872 167.908C52.1868 167.148 52.3907 166.427 52.7117 165.909C53.1151 165.188 53.7962 164.868 54.6812 165.028C55.2842 165.11 55.7267 165.469 55.5662 166.31C55.3666 167.07 55.0847 168.033 54.7636 169.19C53.8787 172.23 54.1216 173.552 54.8851 173.832C55.8916 174.234 57.7787 172.874 59.3491 171.311C60.1516 170.469 61.9606 168.508 62.4031 167.748C62.6461 167.55 63.4877 167.869 63.3271 168.271H63.3315ZM53.7615 161.185C54.4036 159.864 56.0521 158.905 56.1735 161.785C56.2126 162.308 56.0521 162.666 55.8135 162.904C55.0109 163.586 52.8765 163.102 53.7615 161.181V161.185Z" fill="white"/>
<path d="M76.8443 164.219C76.8053 164.379 76.5233 164.737 75.7164 165.458C75.3129 165.86 74.7533 166.3 74.0289 166.901C74.0289 167.341 73.9898 167.781 73.8683 168.3C73.2263 171.581 70.4499 175.545 67.3568 176.702C64.4632 177.782 63.2963 177.06 64.9838 174.263C65.4653 173.421 65.9903 172.661 66.6323 171.901C67.1963 171.218 67.8383 170.541 68.4804 169.901C69.1224 169.262 69.7688 168.662 70.4499 168.101C70.8924 167.699 71.3739 167.302 71.8164 166.939C72.1765 164.418 69.5259 164.979 68.1593 165.938C67.2353 166.577 66.3894 167.54 65.5868 168.537C64.0988 170.536 62.8928 172.898 62.3722 174.098C61.3658 176.499 60.7237 179.06 60.1598 181.78C59.9993 182.501 59.7997 183.222 59.5958 183.982C59.3138 184.824 58.5894 186.465 57.7868 185.903C56.9018 185.303 56.8628 183.14 57.3053 180.342C57.6653 177.98 58.4332 175.1 59.3572 172.259C60.1207 169.858 61.0057 167.458 61.8907 165.415C63.2182 162.375 64.5023 160.052 65.3873 159.612C66.7538 159.254 66.4328 160.972 65.7083 162.976C64.9448 165.018 62.9752 168.857 62.3722 170.86C62.8147 169.858 63.5782 168.58 64.5413 167.337C65.4653 166.175 66.5933 165.014 67.7993 164.254C69.2482 163.295 70.8533 162.894 72.3847 163.615C73.1092 163.973 73.6731 164.655 73.9117 165.614C74.3152 165.294 74.7967 164.975 75.2782 164.612C75.5602 164.37 77.0872 163.131 76.8443 164.211V164.219ZM71.4563 168.783C70.8143 169.306 70.1289 169.901 69.4868 170.545C68.9228 171.106 68.3198 171.745 67.7993 172.384C67.1572 173.144 66.5933 173.943 66.1117 174.707C65.5478 175.627 65.4263 176.188 67.1963 174.509C67.9598 173.788 68.9272 172.747 69.7688 171.706C70.5323 170.748 71.4563 168.783 71.4563 168.783Z" fill="white"/>
<path d="M63.7089 182.941V189.663H54.034V218.596H46.971V189.663H37.3513V182.941H63.7089Z" fill="white"/>
<path d="M70.7225 197.511C71.3355 195.879 72.3516 194.659 73.7653 193.845C75.179 193.032 76.7583 192.625 78.4978 192.625V199.963C76.4822 199.727 74.6875 200.133 73.0971 201.183C71.5122 202.238 70.717 203.986 70.717 206.432V218.607H64.1124V193.136H70.717V197.517L70.7225 197.511Z" fill="white"/>
<path d="M100.818 193.132H107.423V218.602H100.818V215.595C98.8413 218.074 96.0581 219.316 92.4742 219.316C88.8902 219.316 86.1347 218.019 83.6938 215.419C81.253 212.82 80.0326 209.637 80.0326 205.867C80.0326 202.096 81.253 198.914 83.6938 196.314C86.1347 193.714 89.0614 192.417 92.4742 192.417C96.0581 192.417 98.8358 193.659 100.818 196.138V193.132ZM88.6362 211.039C89.9671 212.38 91.6569 213.051 93.7056 213.051C95.7544 213.051 97.4497 212.38 98.7971 211.039C100.145 209.698 100.818 207.972 100.818 205.867C100.818 203.762 100.145 202.036 98.7971 200.695C97.4497 199.354 95.7544 198.683 93.7056 198.683C91.6569 198.683 89.9671 199.354 88.6362 200.695C87.3054 202.036 86.6427 203.762 86.6427 205.867C86.6427 207.972 87.3109 209.698 88.6362 211.039Z" fill="white"/>
<path d="M137 218.601H129.374L123.818 210.884L118.263 218.601H110.637L120.019 205.597L111.051 193.125H118.677L123.84 200.304L129.015 193.125H136.591L127.634 205.575L137 218.596V218.601Z" fill="white"/>
<path d="M24.845 190.532C25.0593 193.058 25.6955 195.444 26.7535 197.75C26.9143 198.11 27.3897 198.417 27.7513 198.517C28.1531 198.623 28.6888 198.577 29.0437 198.35C29.8674 197.823 30.0348 196.924 29.6464 196.07C29.5862 195.937 29.4991 195.791 29.4589 195.644C29.5795 196.057 29.4857 195.704 29.4455 195.611C29.3451 195.357 29.2513 195.104 29.1576 194.851C28.9835 194.358 28.8295 193.858 28.6955 193.351C28.5616 192.845 28.4478 192.331 28.3607 191.818C28.3406 191.705 28.3205 191.592 28.3004 191.472C28.2803 191.352 28.2603 190.845 28.2803 191.338C28.2736 191.072 28.2201 190.798 28.1933 190.532C28.1531 190.085 28.0326 189.679 27.7044 189.352C27.4165 189.065 26.9344 188.845 26.5192 188.865C25.6754 188.905 24.7647 189.599 24.845 190.532Z" fill="white"/>
<path d="M28.8288 203.429C29.5654 206.428 30.8579 209.314 32.6324 211.847C33.1347 212.56 34.1191 212.96 34.9226 212.447C35.6325 211.987 36.061 210.934 35.5253 210.167C34.6883 208.974 33.965 207.714 33.3624 206.388C33.282 206.215 33.2083 206.048 33.1347 205.875C33.2887 206.241 33.061 205.688 33.0342 205.622C32.9137 205.315 32.7999 205.008 32.6927 204.702C32.4449 203.995 32.2373 203.275 32.0565 202.542C31.8489 201.696 30.8378 201.109 29.994 201.376C29.1503 201.642 28.6012 202.516 28.8221 203.429H28.8288Z" fill="white"/>
<path d="M36.1017 217.479L36.8785 218.599C36.9856 218.792 37.1263 218.952 37.3071 219.066C37.4678 219.212 37.6553 219.312 37.8763 219.366C38.0973 219.432 38.3182 219.446 38.5459 219.392C38.7669 219.379 38.9745 219.319 39.1687 219.192L39.5102 218.932C39.7178 218.726 39.8584 218.479 39.9388 218.199L39.9991 217.759C39.9991 217.459 39.9187 217.179 39.7714 216.92L38.9946 215.8C38.8874 215.607 38.7468 215.447 38.566 215.333C38.4053 215.187 38.2178 215.087 37.9968 215.033C37.7758 214.967 37.5548 214.953 37.3272 215.007C37.1062 215.02 36.8986 215.08 36.7044 215.207L36.3629 215.467C36.1553 215.673 36.0146 215.92 35.9343 216.2L35.874 216.64C35.874 216.94 35.9544 217.219 36.1017 217.479Z" fill="white"/>
<defs>
<filter id="filter0_f_831_6224" x="42.1218" y="24.2046" width="56.4643" height="60.1524" filterUnits="userSpaceOnUse" color-interpolation-filters="sRGB">
<feFlood flood-opacity="0" result="BackgroundImageFix"/>
<feBlend mode="normal" in="SourceGraphic" in2="BackgroundImageFix" result="shape"/>
<feGaussianBlur stdDeviation="2.12992" result="effect1_foregroundBlur_831_6224"/>
</filter>
<filter id="filter1_d_831_6224" x="46.8257" y="78.2349" width="74.4092" height="59.0965" filterUnits="userSpaceOnUse" color-interpolation-filters="sRGB">
<feFlood flood-opacity="0" result="BackgroundImageFix"/>
<feColorMatrix in="SourceAlpha" type="matrix" values="0 0 0 0 0 0 0 0 0 0 0 0 0 0 0 0 0 0 127 0" result="hardAlpha"/>
<feOffset dy="4.25984"/>
<feGaussianBlur stdDeviation="2.12992"/>
<feComposite in2="hardAlpha" operator="out"/>
<feColorMatrix type="matrix" values="0 0 0 0 0 0 0 0 0 0 0 0 0 0 0 0 0 0 0.25 0"/>
<feBlend mode="normal" in2="BackgroundImageFix" result="effect1_dropShadow_831_6224"/>
<feBlend mode="normal" in="SourceGraphic" in2="effect1_dropShadow_831_6224" result="shape"/>
</filter>
<filter id="filter2_f_831_6224" x="24.3251" y="-1.69684" width="31.1214" height="77.1208" filterUnits="userSpaceOnUse" color-interpolation-filters="sRGB">
<feFlood flood-opacity="0" result="BackgroundImageFix"/>
<feBlend mode="normal" in="SourceGraphic" in2="BackgroundImageFix" result="shape"/>
<feGaussianBlur stdDeviation="2" result="effect1_foregroundBlur_831_6224"/>
</filter>
<filter id="filter3_f_831_6224" x="51.1281" y="-3.2655" width="31.1223" height="77.1245" filterUnits="userSpaceOnUse" color-interpolation-filters="sRGB">
<feFlood flood-opacity="0" result="BackgroundImageFix"/>
<feBlend mode="normal" in="SourceGraphic" in2="BackgroundImageFix" result="shape"/>
<feGaussianBlur stdDeviation="2" result="effect1_foregroundBlur_831_6224"/>
</filter>
<filter id="filter4_f_831_6224" x="49.5486" y="-3.47955" width="21.4528" height="78.1358" filterUnits="userSpaceOnUse" color-interpolation-filters="sRGB">
<feFlood flood-opacity="0" result="BackgroundImageFix"/>
<feBlend mode="normal" in="SourceGraphic" in2="BackgroundImageFix" result="shape"/>
<feGaussianBlur stdDeviation="2" result="effect1_foregroundBlur_831_6224"/>
</filter>
<linearGradient id="paint0_linear_831_6224" x1="19.0096" y1="84.8687" x2="133.991" y2="84.8687" gradientUnits="userSpaceOnUse">
<stop stop-color="#33B6CF"/>
<stop offset="0.96" stop-color="#005EB9"/>
</linearGradient>
<linearGradient id="paint1_linear_831_6224" x1="53.7576" y1="86.8586" x2="106.62" y2="126.813" gradientUnits="userSpaceOnUse">
<stop offset="0.00520833" stop-color="white"/>
<stop offset="0.651042" stop-color="#FDF7F7"/>
<stop offset="1" stop-color="white" stop-opacity="0"/>
</linearGradient>
<clipPath id="clip0_831_6224">
<rect width="153" height="142.359" fill="white"/>
</clipPath>
<clipPath id="clip1_831_6224">
<rect width="104.495" height="92.2013" fill="white" transform="translate(19.3356 27.2347)"/>
</clipPath>
<clipPath id="clip2_831_6224">
<rect width="60" height="73" fill="white" transform="translate(23.3985)"/>
</clipPath>
</defs>
</svg>
